<svg xmlns="http://www.w3.org/2000/svg" width="200" height="200" viewBox="0 0 200 200">
  <title>J is for Jellyfish</title>
  <!-- Jellyfish bell -->
  <path d="M70 70 C70 40, 130 40, 130 70 C130 85, 70 85, 70 70 Z" fill="#9b59b6" />
  <!-- Jellyfish inner detail -->
  <path d="M80 70 C80 50, 120 50, 120 70" fill="none" stroke="#8e44ad" stroke-width="2" />
  <!-- Jellyfish tentacles -->
  <path d="M75 85 C75 120, 65 140, 70 150" fill="none" stroke="#9b59b6" stroke-width="3" />
  <path d="M85 85 C85 110, 95 130, 90 145" fill="none" stroke="#9b59b6" stroke-width="3" />
  <path d="M95 85 C95 115, 85 135, 90 140" fill="none" stroke="#9b59b6" stroke-width="3" />
  <path d="M105 85 C105 110, 115 130, 110 145" fill="none" stroke="#9b59b6" stroke-width="3" />
  <path d="M115 85 C115 120, 105 140, 110 150" fill="none" stroke="#9b59b6" stroke-width="3" />
  <path d="M125 85 C125 110, 135 130, 130 145" fill="none" stroke="#9b59b6" stroke-width="3" />
  <!-- Text label -->
  <text x="100" y="180" font-family="Arial" font-size="20" text-anchor="middle" fill="#000">Jellyfish</text>
</svg>